<svg width="62" height="60" viewBox="0 0 62 60" fill="none" xmlns="http://www.w3.org/2000/svg">
    <path d="M26.705 52.085C32.3793 51.8475 37.8111 49.7185 42.1354 46.0368L56.7741 59.505L61.1062 54.7964L46.4675 41.3281C49.7788 36.7122 51.45 31.1209 51.215 25.445C50.6278 11.3436 38.6764 0.347828 24.575 0.935036C10.4736 1.52224 -0.522184 13.4736 0.0650242 27.575C0.652232 41.6764 12.6036 52.6722 26.705 52.085ZM24.8413 7.32878C35.4197 6.88827 44.3808 15.1328 44.8213 25.7113C45.2618 36.2897 37.0172 45.2507 26.4388 45.6912C15.8603 46.1318 6.89928 37.8872 6.45877 27.3088C6.01827 16.7303 14.2628 7.76929 24.8413 7.32878Z" fill="#000"/>
</svg>
