<svg width="32" height="29" viewBox="0 0 32 29" fill="none" xmlns="http://www.w3.org/2000/svg">
    <path d="M30 13H6.28L13.54 4.28C13.8795 3.87157 14.0428 3.34501 13.994 2.81615C13.9453 2.2873 13.6884 1.79948 13.28 1.46C12.8716 1.12052 12.345 0.957201 11.8162 1.00596C11.2873 1.05472 10.7995 1.31157 10.46 1.72L0.46 13.72C0.392721 13.8154 0.332559 13.9157 0.28 14.02C0.28 14.12 0.28 14.18 0.14 14.28C0.0493473 14.5093 0.00188224 14.7534 0 15C0.00188224 15.2466 0.0493473 15.4907 0.14 15.72C0.14 15.82 0.14 15.88 0.28 15.98C0.332559 16.0843 0.392721 16.1846 0.46 16.28L10.46 28.28C10.648 28.5058 10.8835 28.6873 11.1497 28.8118C11.4159 28.9362 11.7062 29.0005 12 29C12.4673 29.0009 12.9202 28.8382 13.28 28.54C13.4825 28.3721 13.6499 28.1659 13.7726 27.9332C13.8953 27.7005 13.9709 27.4459 13.9951 27.1839C14.0192 26.922 13.9915 26.6578 13.9134 26.4066C13.8353 26.1554 13.7084 25.9221 13.54 25.72L6.28 17H30C30.5304 17 31.0391 16.7893 31.4142 16.4142C31.7893 16.0391 32 15.5304 32 15C32 14.4696 31.7893 13.9609 31.4142 13.5858C31.0391 13.2107 30.5304 13 30 13Z" fill="#A5A6F6"/>
</svg>
